<?xml version="1.0" encoding="UTF-8"?>
<svg version="1.1" xmlns="http://www.w3.org/2000/svg" width="1024" height="1024">
<path d="M0 0 C337.92 0 675.84 0 1024 0 C1024 337.92 1024 675.84 1024 1024 C686.08 1024 348.16 1024 0 1024 C0 686.08 0 348.16 0 0 Z " fill="#013E95" transform="translate(0,0)"/>
<path d="M0 0 C1.24316483 0.00506058 1.24316483 0.00506058 2.51144409 0.01022339 C15.77862141 0.08819901 28.46225081 0.89189695 41.3125 4.4375 C42.16972656 4.66824219 43.02695312 4.89898437 43.91015625 5.13671875 C69.51442729 12.26368079 91.54571685 25.82760958 110.3125 44.4375 C111.71628906 45.82195312 111.71628906 45.82195312 113.1484375 47.234375 C121.09522465 55.47717427 127.26179313 64.74713799 133.3125 74.4375 C133.89475342 75.36199951 133.89475342 75.36199951 134.48876953 76.30517578 C164.25639156 124.09252733 168.04139676 186.00722812 160.3125 240.4375 C160.17859863 241.40300781 160.04469727 242.36851562 159.90673828 243.36328125 C156.74427525 265.28969162 150.14337918 286.59006898 140.3125 306.4375 C139.8494043 307.3960791 139.8494043 307.3960791 139.37695312 308.37402344 C131.82319452 323.90474278 121.78781952 337.70124483 109.70458984 350.01025391 C108.40305886 351.34465414 107.13189514 352.70848609 105.86328125 354.07421875 C78.85495103 382.51108875 39.39580527 395.64641024 0.94238281 396.7890625 C-39.2172835 397.19522853 -77.07818575 381.03409335 -105.984375 353.54370117 C-147.60655139 312.73301909 -161.37605236 254.88844535 -161.97070312 198.38818359 C-162.31279627 150.72356662 -153.82814451 102.5564572 -124.6875 63.4375 C-124.02363281 62.54546875 -123.35976563 61.6534375 -122.67578125 60.734375 C-97.29909212 27.99690181 -62.07964481 6.7175588 -21.01821899 0.71832275 C-14.04234392 -0.12218374 -7.01543151 -0.05578116 0 0 Z " fill="#FDFDF5" transform="translate(672.6875,295.5625)"/>
<path d="M0 0 C187.14378562 0 187.14378562 0 218.18359375 30.09765625 C230.10990628 42.12904643 238.01312696 57.61185345 242 74 C242.22429687 74.91394531 242.44859375 75.82789063 242.6796875 76.76953125 C247.70192372 101.36472917 242.83186093 129.85350425 229.375 151 C221.36134043 162.50833819 211.38842107 173.18429677 199 180 C198.34 180 197.68 180 197 180 C197 180.66 197 181.32 197 182 C197.71285156 182.11472656 198.42570313 182.22945312 199.16015625 182.34765625 C218.25341296 186.73359005 236.13246319 204.16985043 246.5480957 220.07421875 C261.54337072 244.2579704 264.9558981 274.56842162 258.83398438 302.12255859 C254.0173208 321.7987104 245.23781619 337.63506045 231 352 C230.29875 352.75023437 229.5975 353.50046875 228.875 354.2734375 C210.27526845 373.84815498 183.99775346 382.28603522 158 386 C105.86 386 53.72 386 0 386 C0 258.62 0 131.24 0 0 Z " fill="#FEFDF6" transform="translate(204,300)"/>
<path d="M0 0 C1.08684082 0.00499512 2.17368164 0.00999023 3.29345703 0.01513672 C21.4135375 0.40478697 36.18224866 7.63697473 49.75 19.5 C50.36488281 20.03109375 50.97976563 20.5621875 51.61328125 21.109375 C71.83593431 39.89087348 80.87394622 69.29225176 85.4375 95.625 C85.61671997 96.64376221 85.61671997 96.64376221 85.79956055 97.68310547 C87.90768838 110.65549531 87.99038718 123.82757238 88 136.9375 C88.00067474 137.77249023 88.00134949 138.60748047 88.00204468 139.46777344 C87.98473742 153.01337422 87.30888417 166.16634114 84.75 179.5 C84.49259033 180.88179443 84.49259033 180.88179443 84.22998047 182.29150391 C78.87323579 210.26242361 67.41569596 239.92847467 43.75 257.5 C25.67515848 269.47626608 5.42814151 274.89126059 -16.2265625 270.8828125 C-40.1694252 264.6631723 -57.63478007 249.32817837 -70.078125 228.32470703 C-73.87108399 221.66189877 -76.76127389 214.74442881 -79.25 207.5 C-79.47139648 206.86433105 -79.69279297 206.22866211 -79.92089844 205.57373047 C-87.52888004 183.23575806 -89.4789469 159.69974544 -89.5 136.25 C-89.50100708 135.46474945 -89.50201416 134.6794989 -89.50305176 133.87045288 C-89.46809535 93.29479779 -81.07706312 52.50256723 -52.71484375 21.91015625 C-38.07789975 7.59796219 -20.43795699 -0.12483639 0 0 Z " fill="#013D95" transform="translate(674.25,357.5)"/>
<path d="M0 0 C17.6653125 -0.0928125 17.6653125 -0.0928125 35.6875 -0.1875 C41.22664185 -0.22846802 41.22664185 -0.22846802 46.87768555 -0.27026367 C51.45275879 -0.28381348 51.45275879 -0.28381348 53.60725403 -0.28633118 C55.08421048 -0.29088145 56.56115713 -0.30131248 58.03804016 -0.31672668 C74.86229345 -0.48325479 90.54049507 1.81743763 103.375 13.6875 C113.45129129 24.70112072 117.58513361 37.13115772 117.4375 51.8125 C117.42992676 52.86840332 117.42235352 53.92430664 117.41455078 55.01220703 C117.1184911 69.04802902 112.9882044 80.86389087 103.25 91.25 C89.30187114 104.42766079 73.05975879 107.32574603 54.58984375 107.1953125 C53.18916992 107.19236596 51.78849387 107.19032929 50.38781738 107.18920898 C45.23767765 107.17879243 40.08758529 107.15087005 34.9375 107.125 C23.408125 107.08375 11.87875 107.0425 0 107 C0 71.69 0 36.38 0 0 Z " fill="#013C94" transform="translate(276,518)"/>
<path d="M0 0 C9.28125 -0.061875 18.5625 -0.12375 28.125 -0.1875 C31.02555176 -0.21481201 33.92610352 -0.24212402 36.91455078 -0.27026367 C39.25813381 -0.27903966 41.60172147 -0.28668094 43.9453125 -0.29296875 C45.12601318 -0.30831665 46.30671387 -0.32366455 47.52319336 -0.33947754 C63.67650021 -0.344458 77.75006293 3.08273663 89.66796875 14.34375 C98.522075 24.42882915 101.39947761 35.80945039 101.3125 48.875 C101.30512817 50.190448 101.30512817 50.190448 101.29760742 51.5324707 C101.08220141 63.45712651 97.72444346 74.46723712 89.6171875 83.53125 C76.59813944 95.35531297 60.62525371 97.16948833 43.84765625 97.09765625 C42.73418823 97.09664917 41.62072021 97.09564209 40.47351074 97.09460449 C36.3364966 97.08939468 32.1994972 97.07543348 28.0625 97.0625 C14.1715625 97.0315625 14.1715625 97.0315625 0 97 C0 64.99 0 32.98 0 0 Z " fill="#013C94" transform="translate(276,361)"/>
<path d="M0 0 C5.73235729 1.91078576 9.27838361 7.42772844 13 12 C9.57143381 10.49017269 7.04321784 8.48286031 4.25 6 C3.45078125 5.29875 2.6515625 4.5975 1.828125 3.875 C0 2 0 2 0 0 Z " fill="#142883" transform="translate(617,602)"/>
<path d="M0 0 C1 2 1 2 1 6 C0.4225 6.2475 -0.155 6.495 -0.75 6.75 C-3.3002997 8.16683317 -5.01785701 9.87627537 -7 12 C-5.44298069 7.32894208 -2.91552627 3.91294315 0 0 Z " fill="#0A2383" transform="translate(804,617)"/>
<path d="M0 0 C0 0.99 0 1.98 0 3 C-4.53701494 4.45184478 -8.18061476 5.23509196 -13 5 C-10.14589666 3.49439503 -7.31875358 2.36783204 -4.25 1.375 C-3.45078125 1.11460937 -2.6515625 0.85421875 -1.828125 0.5859375 C-1.22484375 0.39257812 -0.6215625 0.19921875 0 0 Z " fill="#182F8C" transform="translate(726,682)"/>
<path d="M0 0 C0.33 0.99 0.66 1.98 1 3 C-1.64 5.64 -4.28 8.28 -7 11 C-7 7.22089522 -6.00296038 6.53893899 -3.5 3.8125 C-2.8503125 3.09707031 -2.200625 2.38164063 -1.53125 1.64453125 C-1.0259375 1.10183594 -0.520625 0.55914063 0 0 Z " fill="#071C80" transform="translate(445,640)"/>
<path d="M0 0 C0.66 0.33 1.32 0.66 2 1 C-0.12055614 4.1808342 -1.63050557 5.31525278 -5 7 C-5.66 6.67 -6.32 6.34 -7 6 C-4.69 4.02 -2.38 2.04 0 0 Z " fill="#041E81" transform="translate(633,370)"/>
</svg>
